<svg width="32" height="33" viewBox="0 0 32 33" fill="none" xmlns="http://www.w3.org/2000/svg">
<g clip-path="url(#clip0_4_123)">
<path d="M0.132713 16.3035C0.131845 19.0889 0.859535 21.808 2.24298 24.2048L0 32.3942L8.3809 30.1967C10.6901 31.4558 13.29 32.1196 15.9356 32.1206H15.9424C24.6554 32.1206 31.7482 25.03 31.7519 16.3162C31.7534 12.0932 30.1103 8.12208 27.1256 5.13479C24.1405 2.14788 20.1715 0.501736 15.9424 0.5C7.22803 0.5 0.136186 7.58961 0.132713 16.3035ZM5.12385 23.792L4.81091 23.2953C3.49544 21.2036 2.80112 18.7865 2.80211 16.3045C2.80484 9.06174 8.69929 3.16915 15.9474 3.16915C19.4575 3.17064 22.7562 4.53895 25.2373 7.02155C27.7183 9.5044 29.0835 12.8049 29.0827 16.3152C29.0794 23.558 23.1849 29.4513 15.9424 29.4513H15.9372C13.579 29.4501 11.2662 28.8168 9.24924 27.62L8.76924 27.3353L3.79585 28.6393L5.12385 23.792Z" fill="url(#paint0_linear_4_123)"/>
<path d="M0.68143 16.2563C0.680686 18.936 1.38302 21.5526 2.71849 23.8588L0.553711 31.7387L8.64245 29.6243C10.8797 30.8385 13.3864 31.4747 15.9336 31.4749H15.9403C24.3493 31.4749 31.1945 24.6531 31.1981 16.2683C31.1997 12.2052 29.614 8.3846 26.733 5.51016C23.8525 2.63598 20.0215 1.05227 15.9397 1.05042C7.52968 1.05042 0.685026 7.87182 0.681554 16.2563" fill="url(#paint1_linear_4_123)"/>
<path d="M11.9921 9.66625C11.6962 9.01069 11.3849 8.99746 11.1035 8.98597C10.8731 8.97608 10.6097 8.97682 10.3466 8.97682C10.0832 8.97682 9.65531 9.07559 9.2936 9.46933C8.93152 9.86343 7.91125 10.8158 7.91125 12.7528C7.91125 14.6898 9.32646 16.562 9.52374 16.8249C9.72128 17.0873 12.2558 21.1896 16.2699 22.7677C19.606 24.0792 20.2849 23.8184 21.009 23.7526C21.7331 23.6871 23.3456 22.8005 23.6746 21.8811C24.0038 20.9619 24.0038 20.1739 23.9051 20.0092C23.8064 19.8452 23.543 19.7467 23.1481 19.5499C22.7531 19.3531 20.8114 18.4004 20.4495 18.269C20.0874 18.1377 19.8241 18.0722 19.5608 18.4665C19.2974 18.8601 18.5411 19.7467 18.3106 20.0092C18.0803 20.2724 17.8498 20.3052 17.455 20.1083C17.0598 19.9107 15.788 19.4955 14.279 18.1543C13.105 17.1107 12.3124 15.822 12.082 15.4277C11.8516 15.0341 12.0573 14.8208 12.2553 14.6246C12.4328 14.4482 12.6504 14.1648 12.848 13.935C13.045 13.7051 13.1107 13.541 13.2424 13.2785C13.3742 13.0156 13.3082 12.7857 13.2096 12.5888C13.1107 12.3918 12.3432 10.4447 11.9921 9.66625Z" fill="white"/>
</g>
<defs>
<linearGradient id="paint0_linear_4_123" x1="1587.6" y1="3189.92" x2="1587.6" y2="0.5" gradientUnits="userSpaceOnUse">
<stop stop-color="#F9F9F9"/>
<stop offset="1" stop-color="white"/>
</linearGradient>
<linearGradient id="paint1_linear_4_123" x1="1532.77" y1="3069.88" x2="1532.77" y2="1.05042" gradientUnits="userSpaceOnUse">
<stop stop-color="#1FAF38"/>
<stop offset="1" stop-color="#60D669"/>
</linearGradient>
<clipPath id="clip0_4_123">
<rect width="31.7519" height="31.8942" fill="white" transform="translate(0 0.5)"/>
</clipPath>
</defs>
</svg>
