<svg width="33" height="33" viewBox="0 0 33 33" fill="none" xmlns="http://www.w3.org/2000/svg">
<g clip-path="url(#clip0_4_118)">
<path d="M25.26 0.5H8.26001C4.11787 0.5 0.76001 3.85786 0.76001 8V25C0.76001 29.1421 4.11787 32.5 8.26001 32.5H25.26C29.4021 32.5 32.76 29.1421 32.76 25V8C32.76 3.85786 29.4021 0.5 25.26 0.5Z" fill="url(#paint0_radial_4_118)"/>
<path d="M25.26 0.5H8.26001C4.11787 0.5 0.76001 3.85786 0.76001 8V25C0.76001 29.1421 4.11787 32.5 8.26001 32.5H25.26C29.4021 32.5 32.76 29.1421 32.76 25V8C32.76 3.85786 29.4021 0.5 25.26 0.5Z" fill="url(#paint1_radial_4_118)"/>
<path d="M16.7611 4C13.3664 4 12.9403 4.01488 11.607 4.0755C10.2763 4.1365 9.36788 4.34712 8.57313 4.65625C7.75089 4.9755 7.05351 5.40262 6.35876 6.09762C5.66338 6.7925 5.23626 7.48987 4.91601 8.31175C4.60601 9.10675 4.39513 10.0155 4.33526 11.3456C4.27563 12.679 4.26001 13.1053 4.26001 16.5001C4.26001 19.895 4.27501 20.3197 4.33551 21.653C4.39676 22.9837 4.60738 23.8921 4.91626 24.6869C5.23576 25.5091 5.66288 26.2065 6.35788 26.9013C7.05251 27.5966 7.74988 28.0247 8.57151 28.344C9.36688 28.6531 10.2754 28.8637 11.6059 28.9247C12.9393 28.9854 13.365 29.0002 16.7596 29.0002C20.1548 29.0002 20.5795 28.9854 21.9128 28.9247C23.2435 28.8637 24.1529 28.6531 24.9483 28.344C25.7701 28.0247 26.4665 27.5966 27.161 26.9013C27.8564 26.2065 28.2834 25.5091 28.6038 24.6873C28.911 23.8921 29.122 22.9835 29.1845 21.6532C29.2444 20.32 29.26 19.895 29.26 16.5001C29.26 13.1053 29.2444 12.6792 29.1845 11.3459C29.122 10.0151 28.911 9.10688 28.6038 8.31213C28.2834 7.48988 27.8564 6.7925 27.161 6.09762C26.4658 5.40237 25.7704 4.97525 24.9475 4.65637C24.1506 4.34712 23.2418 4.13638 21.911 4.0755C20.5776 4.01488 20.1531 4 16.7573 4H16.7611ZM15.6398 6.25262C15.9726 6.25213 16.344 6.25262 16.7611 6.25262C20.0988 6.25262 20.4943 6.26463 21.8123 6.3245C23.031 6.38025 23.6925 6.58388 24.1331 6.755C24.7165 6.9815 25.1324 7.25238 25.5696 7.69C26.0071 8.1275 26.2779 8.54412 26.505 9.1275C26.6761 9.5675 26.88 10.229 26.9355 11.4478C26.9954 12.7655 27.0084 13.1612 27.0084 16.4972C27.0084 19.8333 26.9954 20.2291 26.9355 21.5467C26.8798 22.7655 26.6761 23.427 26.505 23.8671C26.2785 24.4505 26.0071 24.8659 25.5696 25.3031C25.1321 25.7406 24.7168 26.0114 24.1331 26.238C23.693 26.4099 23.031 26.613 21.8123 26.6688C20.4945 26.7286 20.0988 26.7416 16.7611 26.7416C13.4234 26.7416 13.0278 26.7286 11.7101 26.6688C10.4914 26.6125 9.82988 26.4089 9.38888 26.2377C8.80563 26.0111 8.38888 25.7404 7.95138 25.3029C7.51388 24.8654 7.24313 24.4498 7.01601 23.8661C6.84488 23.426 6.64101 22.7645 6.58551 21.5457C6.52563 20.228 6.51363 19.8323 6.51363 16.4941C6.51363 13.156 6.52563 12.7624 6.58551 11.4446C6.64126 10.2259 6.84488 9.56437 7.01601 9.12375C7.24263 8.54037 7.51389 8.12375 7.95151 7.68625C8.38913 7.24875 8.80563 6.97787 9.38901 6.75087C9.82963 6.579 10.4914 6.37587 11.7101 6.31987C12.8633 6.26775 13.3101 6.25212 15.6398 6.2495V6.25262ZM23.4336 8.32812C22.6055 8.32812 21.9336 8.99938 21.9336 9.82763C21.9336 10.6558 22.6055 11.3276 23.4336 11.3276C24.2618 11.3276 24.9336 10.6558 24.9336 9.82763C24.9336 8.9995 24.2618 8.32762 23.4336 8.32762V8.32812ZM16.7611 10.0808C13.2161 10.0808 10.3419 12.955 10.3419 16.5001C10.3419 20.0452 13.2161 22.9181 16.7611 22.9181C20.3063 22.9181 23.1795 20.0452 23.1795 16.5001C23.1795 12.9551 20.306 10.0808 16.7609 10.0808H16.7611ZM16.7611 12.3334C19.0623 12.3334 20.9279 14.1988 20.9279 16.5001C20.9279 18.8013 19.0623 20.6669 16.7611 20.6669C14.46 20.6669 12.5945 18.8013 12.5945 16.5001C12.5945 14.1988 14.4599 12.3334 16.7611 12.3334Z" fill="white"/>
</g>
<defs>
<radialGradient id="paint0_radial_4_118" cx="0" cy="0" r="1" gradientUnits="userSpaceOnUse" gradientTransform="translate(9.26001 34.9646) rotate(-90) scale(31.7144 29.4969)">
<stop stop-color="#FFDD55"/>
<stop offset="0.1" stop-color="#FFDD55"/>
<stop offset="0.5" stop-color="#FF543E"/>
<stop offset="1" stop-color="#C837AB"/>
</radialGradient>
<radialGradient id="paint1_radial_4_118" cx="0" cy="0" r="1" gradientUnits="userSpaceOnUse" gradientTransform="translate(-4.60012 2.80512) rotate(78.681) scale(14.1765 58.436)">
<stop stop-color="#3771C8"/>
<stop offset="0.128" stop-color="#3771C8"/>
<stop offset="1" stop-color="#6600FF" stop-opacity="0"/>
</radialGradient>
<clipPath id="clip0_4_118">
<rect x="0.76001" y="0.5" width="32" height="32" rx="10" fill="white"/>
</clipPath>
</defs>
</svg>
