<svg width="254" height="254" viewBox="0 0 254 254" fill="none" xmlns="http://www.w3.org/2000/svg">
<rect width="254" height="254" rx="127" fill="#D9D9D9"/>
<path d="M69 148.75L99.6894 118.14C100.932 116.9 102.408 115.917 104.032 115.246C105.656 114.575 107.396 114.23 109.154 114.23C110.912 114.23 112.652 114.575 114.276 115.246C115.9 115.917 117.375 116.9 118.618 118.14L149.308 148.75M140.385 139.85L148.766 131.49C150.009 130.25 151.485 129.267 153.109 128.596C154.733 127.925 156.473 127.58 158.231 127.58C159.988 127.58 161.729 127.925 163.353 128.596C164.977 129.267 166.452 130.25 167.695 131.49L185 148.75M77.9231 171H176.077C178.443 171 180.713 170.062 182.386 168.393C184.06 166.724 185 164.46 185 162.1V90.9C185 88.5396 184.06 86.2758 182.386 84.6067C180.713 82.9377 178.443 82 176.077 82H77.9231C75.5565 82 73.2869 82.9377 71.6135 84.6067C69.9401 86.2758 69 88.5396 69 90.9V162.1C69 164.46 69.9401 166.724 71.6135 168.393C73.2869 170.062 75.5565 171 77.9231 171ZM140.385 104.25H140.432V104.297H140.385V104.25ZM142.615 104.25C142.615 104.84 142.38 105.406 141.962 105.823C141.544 106.241 140.976 106.475 140.385 106.475C139.793 106.475 139.226 106.241 138.807 105.823C138.389 105.406 138.154 104.84 138.154 104.25C138.154 103.66 138.389 103.094 138.807 102.677C139.226 102.259 139.793 102.025 140.385 102.025C140.976 102.025 141.544 102.259 141.962 102.677C142.38 103.094 142.615 103.66 142.615 104.25Z" stroke="black" stroke-linecap="round" stroke-linejoin="round"/>
</svg>
