<svg width="331" height="230" viewBox="0 0 331 230" fill="none" xmlns="http://www.w3.org/2000/svg">
<rect width="330.67" height="230" rx="20" fill="#D9D9D9"/>
<path d="M107 136.75L137.689 106.14C138.932 104.9 140.408 103.917 142.032 103.246C143.656 102.575 145.396 102.23 147.154 102.23C148.912 102.23 150.652 102.575 152.276 103.246C153.9 103.917 155.375 104.9 156.618 106.14L187.308 136.75M178.385 127.85L186.766 119.49C188.009 118.25 189.485 117.267 191.109 116.596C192.733 115.925 194.473 115.58 196.231 115.58C197.988 115.58 199.729 115.925 201.353 116.596C202.977 117.267 204.452 118.25 205.695 119.49L223 136.75M115.923 159H214.077C216.443 159 218.713 158.062 220.386 156.393C222.06 154.724 223 152.46 223 150.1V78.9C223 76.5396 222.06 74.2758 220.386 72.6067C218.713 70.9377 216.443 70 214.077 70H115.923C113.557 70 111.287 70.9377 109.614 72.6067C107.94 74.2758 107 76.5396 107 78.9V150.1C107 152.46 107.94 154.724 109.614 156.393C111.287 158.062 113.557 159 115.923 159ZM178.385 92.25H178.432V92.2975H178.385V92.25ZM180.615 92.25C180.615 92.8401 180.38 93.406 179.962 93.8233C179.544 94.2406 178.976 94.475 178.385 94.475C177.793 94.475 177.226 94.2406 176.807 93.8233C176.389 93.406 176.154 92.8401 176.154 92.25C176.154 91.6599 176.389 91.094 176.807 90.6767C177.226 90.2594 177.793 90.025 178.385 90.025C178.976 90.025 179.544 90.2594 179.962 90.6767C180.38 91.094 180.615 91.6599 180.615 92.25Z" stroke="black" stroke-linecap="round" stroke-linejoin="round"/>
</svg>
